# File created by Blade
# Date/Time:  Thu Sep 25 19:36:54 2014
# Frame Rate: 120.000 fps
#------------------------------------------------------
:FULLY-SPECIFIED
:DEGREES
801
root 0.022226 34.215052 -1.131971 86.817621 -7.083067 -33.921278
Spine -34.830674 -1.791866 12.860229
Head -38.386414 28.332938 21.589108
LeftShoulder -15.070028 8.321282 39.915944
LeftArm 44.491412 -39.191788 -16.109132
LeftForeArm 15.848066 0.000000 16.630966
LeftHand -27.315166 -0.000000 -2.424890
LeftHandThumb1 -26.253704 0.000000 33.147579
RightShoulder -25.987455 0.422045 -30.816797
RightArm -30.963507 -23.928742 53.322330
RightForeArm -44.015064 -0.000000 11.630699
RightHand -0.590096 -0.000000 22.803471
RightHandThumb1 -24.326973 -0.000000 -32.862282
LeftUpLeg -75.388475 28.880983 5.911136
LeftLeg -12.552658 -0.000000 0.000000
LeftFoot -1.624036 19.473819 -9.175471
LeftToeBase 7.151731 -0.000000 -0.000000
RightUpLeg 20.544561 22.571110 -31.530181
RightLeg 97.455615 -0.000000 -0.000000
RightFoot 30.124638 -18.104591 19.484680
RightToeBase 9.926506 -0.000000 -0.000000
802
root 0.011873 34.220150 -1.100219 86.419662 -7.285257 -33.924067
Spine -34.699112 -1.699876 12.836286
Head -38.208980 28.318703 21.564518
LeftShoulder -15.021904 8.546234 39.716827
LeftArm 44.340639 -39.031908 -16.201388
LeftForeArm 16.121407 0.000000 16.592805
LeftHand -26.785512 -0.000000 -2.164758
LeftHandThumb1 -26.253704 0.000000 33.147579
RightShoulder -26.025377 0.304296 -30.762915
RightArm -30.807578 -24.070132 53.445040
RightForeArm -43.766699 -0.000000 11.421321
RightHand -0.615610 -0.000000 22.870883
RightHandThumb1 -24.326973 -0.000000 -32.862282
LeftUpLeg -74.786134 28.835594 6.109734
LeftLeg -12.508462 -0.000000 0.000000
LeftFoot -1.723158 19.588001 -9.153245
LeftToeBase 7.131076 -0.000000 -0.000000
RightUpLeg 20.530529 22.650858 -31.527964
RightLeg 97.497209 -0.000000 -0.000000
RightFoot 30.127314 -18.085987 19.282435
RightToeBase 9.855356 -0.000000 -0.000000
803
root 0.002675 34.225751 -1.069927 86.026098 -7.490517 -33.925455
Spine -34.559528 -1.606412 12.822447
Head -38.059178 28.309459 21.442668
LeftShoulder -15.016046 8.801900 39.517610
LeftArm 44.297234 -38.910732 -16.398311
LeftForeArm 16.130821 0.000000 16.552485
LeftHand -26.454413 -0.000000 -1.913775
LeftHandThumb1 -26.253704 0.000000 33.147579
RightShoulder -26.039859 0.384048 -30.745318
RightArm -30.897690 -24.116731 53.474804
RightForeArm -43.854954 0.000000 11.420994
RightHand -0.473461 -0.000000 22.842477
RightHandThumb1 -24.326973 -0.000000 -32.862282
LeftUpLeg -74.203958 28.783324 6.299431
LeftLeg -12.434535 -0.000000 0.000000
LeftFoot -1.756526 19.604878 -8.987518
LeftToeBase 6.998355 -0.000000 -0.000000
RightUpLeg 20.531139 22.743157 -31.534776
RightLeg 97.518261 -0.000000 -0.000000
RightFoot 30.100707 -18.068998 19.230923
RightToeBase 9.895701 -0.000000 -0.000000
804
root -0.009487 34.235985 -1.040369 85.648176 -7.654349 -33.960182
Spine -34.426826 -1.463520 12.877382
Head -37.887401 28.269459 21.294879
LeftShoulder -14.919709 8.908322 39.262239
LeftArm 43.969683 -38.642574 -16.311819
LeftForeArm 15.840441 -0.000000 16.704492
LeftHand -26.549790 -0.000000 -1.708731
LeftHandThumb1 -26.253704 0.000000 33.147579
RightShoulder -26.069431 0.283956 -30.698904
RightArm -30.838396 -24.178702 53.535102
RightForeArm -43.827128 -0.000000 11.411211
RightHand -0.414420 -0.000000 22.790848
RightHandThumb1 -24.326973 -0.000000 -32.862282
LeftUpLeg -73.672908 28.765367 6.537727
LeftLeg -12.267745 -0.000000 0.000000
LeftFoot -1.903689 19.774309 -8.933737
LeftToeBase 6.989181 -0.000000 -0.000000
RightUpLeg 20.490312 22.864093 -31.485507
RightLeg 97.560916 -0.000000 -0.000000
RightFoot 30.178866 -18.018633 19.165971
RightToeBase 9.744107 -0.000000 -0.000000
